<?xml version="1.0" standalone="no"?>
<!DOCTYPE svg PUBLIC "-//W3C//DTD SVG 20010904//EN"
 "http://www.w3.org/TR/2001/REC-SVG-20010904/DTD/svg10.dtd">
<svg version="1.0" xmlns="http://www.w3.org/2000/svg"
 width="512.000000pt" height="512.000000pt" viewBox="0 0 512.000000 512.000000"
 preserveAspectRatio="xMidYMid meet">

<g transform="translate(0.000000,512.000000) scale(0.100000,-0.100000)"
fill="#000000" stroke="none">
<path d="M2287 4720 c-60 -11 -157 -36 -215 -55 -548 -184 -951 -721 -1022
-1365 -8 -68 -9 -168 -5 -286 8 -217 7 -222 -100 -464 -40 -91 -80 -190 -89
-220 -55 -190 -32 -384 65 -547 19 -31 70 -93 114 -138 229 -235 628 -397
1160 -472 194 -27 568 -24 765 6 663 101 1107 335 1270 668 41 86 60 171 60
278 0 127 -26 221 -119 431 -44 100 -85 203 -92 229 -8 33 -10 101 -6 219 9
277 -16 466 -90 680 -93 269 -227 482 -420 667 -195 186 -414 302 -681 360
-146 31 -447 36 -595 9z m576 -333 c111 -29 255 -95 346 -157 251 -170 450
-488 522 -833 19 -89 22 -138 23 -382 1 -323 -4 -298 125 -592 81 -186 91
-218 91 -300 0 -118 -57 -215 -186 -318 -172 -137 -486 -251 -849 -307 -188
-29 -541 -31 -720 -5 -613 91 -1028 318 -1064 583 -12 88 5 157 80 329 39 88
85 201 102 250 l32 90 1 280 c1 306 7 362 64 537 69 210 175 385 324 533 108
108 171 154 294 215 171 84 306 111 542 106 149 -3 190 -7 273 -29z"/>
</g>
</svg>
